<svg xmlns="http://www.w3.org/2000/svg" width="142.53" height="168.913" viewBox="0 0 142.53 168.913">
  <g id="logo" transform="translate(-249.47 -451.942)">
    <g id="logos" transform="translate(116.9 8.5)">
      <g id="objetcs">
        <g id="Group_2" data-name="Group 2">
          <path id="Path_8" data-name="Path 8" d="M136.9,467.3a1.793,1.793,0,0,0,1.8-1.8V450.1l55.4,34.7a1.689,1.689,0,0,0,1,.3,1.763,1.763,0,0,0,1.5-.8,1.808,1.808,0,0,0-.6-2.5l-58.2-36.4a1.672,1.672,0,0,0-1.8,0,1.7,1.7,0,0,0-.9,1.6v18.6A1.845,1.845,0,0,0,136.9,467.3Z" fill="#231f20" stroke="#231f20" stroke-width="3"/>
          <path id="Path_9" data-name="Path 9" d="M212,512.3a1.763,1.763,0,0,0,1.5.8,1.929,1.929,0,0,0,1-.3l13.3-8.3a1.806,1.806,0,0,0,0-3l-13.3-8.3a1.818,1.818,0,0,0-1.9,3.1l10.8,6.8-10.8,6.8A1.674,1.674,0,0,0,212,512.3Z" fill="#231f20" stroke="#231f20" stroke-width="3"/>
          <path id="Path_10" data-name="Path 10" d="M194.2,521.3,138.7,556V483.8a1.8,1.8,0,0,0-3.6,0v75.4a1.893,1.893,0,0,0,.9,1.6,1.486,1.486,0,0,0,.9.2,1.929,1.929,0,0,0,1-.3l58.2-36.4a1.777,1.777,0,1,0-1.9-3Z" fill="#231f20" stroke="#231f20" stroke-width="3"/>
          <path id="Path_11" data-name="Path 11" d="M271.7,524a1.792,1.792,0,0,0,1.8-1.8V446.8a1.8,1.8,0,0,0-2.7-1.6l-89.9,56.2a1.806,1.806,0,0,0,0,3l89.9,56.2a1.689,1.689,0,0,0,1,.3,2.919,2.919,0,0,0,.9-.2,1.7,1.7,0,0,0,.9-1.6V540.5a1.8,1.8,0,0,0-3.6,0V556l-84.7-53L270,450v72.2A1.653,1.653,0,0,0,271.7,524Z" fill="#231f20" stroke="#231f20" stroke-width="3"/>
        </g>
      </g>
    </g>
    <text id="Path_13" transform="translate(250 600)" fill="#231e20" font-size="24" font-family="Arial, sans-serif">Cook-for-You</text>
      <text id="Path_12" transform="translate(250 620)" fill="#b0b0b0" font-size="15" font-weight="bold" font-family="Arial, sans-serif" letter-spacing="1.5">FAMILY RECIPES</text>
  </g>
</svg>
